<?xml version="1.0" encoding="UTF-8" standalone="no"?>
<!-- Created with Inkscape (http://www.inkscape.org/) -->

<svg
   xmlns:dc="http://purl.org/dc/elements/1.1/"
   xmlns:cc="http://creativecommons.org/ns#"
   xmlns:rdf="http://www.w3.org/1999/02/22-rdf-syntax-ns#"
   xmlns:svg="http://www.w3.org/2000/svg"
   xmlns="http://www.w3.org/2000/svg"
   xmlns:xlink="http://www.w3.org/1999/xlink"
   xmlns:sodipodi="http://sodipodi.sourceforge.net/DTD/sodipodi-0.dtd"
   xmlns:inkscape="http://www.inkscape.org/namespaces/inkscape"
   width="744.09448819"
   height="1052.3622047"
   id="svg5970"
   version="1.1"
   inkscape:version="0.48.2 r9819"
   sodipodi:docname="regular-case.svg">
  <defs
     id="defs5972">
    <pattern
       inkscape:collect="always"
       xlink:href="#pattern5880"
       id="pattern6456"
       patternTransform="translate(17.434118,-124.58225)" />
    <pattern
       inkscape:collect="always"
       xlink:href="#pattern5356"
       id="pattern6441"
       patternTransform="matrix(0.88118812,0,0,1,65.994229,-124.58225)" />
    <pattern
       inkscape:collect="always"
       xlink:href="#pattern5878"
       id="pattern6438"
       patternTransform="translate(17.434118,-124.58225)" />
    <pattern
       inkscape:collect="always"
       patternUnits="userSpaceOnUse"
       width="30.066020"
       height="5.1805778"
       id="Wavy"
       inkscape:stockid="Wavy">
      <path
         style="fill:black;stroke:none;"
         d="M 7.597,0.061 C 5.079,-0.187 2.656,0.302 -0.01,1.788 L -0.01,3.061 C 2.773,1.431 5.173,1.052 7.472,1.280 C 9.770,1.508 11.969,2.361 14.253,3.218 C 18.820,4.931 23.804,6.676 30.066,3.061 L 30.062,1.788 C 23.622,5.497 19.246,3.770 14.691,2.061 C 12.413,1.207 10.115,0.311 7.597,0.061 z "
         id="path5266" />
    </pattern>
    <pattern
       patternTransform="matrix(0.88118812,0,0,1,48.560111,-138)"
       id="pattern5356"
       xlink:href="#Wavy"
       inkscape:collect="always" />
    <marker
       style="overflow:visible;"
       id="Arrow2Mend"
       refX="0.0"
       refY="0.0"
       orient="auto"
       inkscape:stockid="Arrow2Mend">
      <path
         transform="scale(0.6) rotate(180) translate(0,0)"
         d="M 8.7185878,4.0337352 L -2.2072895,0.016013256 L 8.7185884,-4.0017078 C 6.9730900,-1.6296469 6.9831476,1.6157441 8.7185878,4.0337352 z "
         style="font-size:12.0;fill-rule:evenodd;stroke-width:0.62500000;stroke-linejoin:round;"
         id="path5402" />
    </marker>
    <pattern
       patternTransform="translate(0,-138)"
       id="pattern5878"
       xlink:href="#Wavy"
       inkscape:collect="always" />
    <pattern
       patternTransform="translate(0,-138)"
       id="pattern5880"
       xlink:href="#Wavy"
       inkscape:collect="always" />
  </defs>
  <sodipodi:namedview
     id="base"
     pagecolor="#ffffff"
     bordercolor="#666666"
     borderopacity="1.0"
     inkscape:pageopacity="0.0"
     inkscape:pageshadow="2"
     inkscape:zoom="1.4"
     inkscape:cx="326.22552"
     inkscape:cy="770.80499"
     inkscape:document-units="px"
     inkscape:current-layer="layer1"
     showgrid="false"
     inkscape:window-width="1174"
     inkscape:window-height="859"
     inkscape:window-x="123"
     inkscape:window-y="13"
     inkscape:window-maximized="0" />
  <metadata
     id="metadata5975">
    <rdf:RDF>
      <cc:Work
         rdf:about="">
        <dc:format>image/svg+xml</dc:format>
        <dc:type
           rdf:resource="http://purl.org/dc/dcmitype/StillImage" />
        <dc:title></dc:title>
      </cc:Work>
    </rdf:RDF>
  </metadata>
  <g
     inkscape:label="Layer 1"
     inkscape:groupmode="layer"
     id="layer1">
    <path
       style="fill:none;stroke:#ff0000;stroke-width:2;stroke-linecap:butt;stroke-linejoin:miter;stroke-miterlimit:4;stroke-opacity:1;stroke-dasharray:none"
       d="m 73.148404,69.208495 0,314.999995 352.857136,0 0,-312.857135 z"
       id="path3059"
       inkscape:connector-curvature="0" />
    <path
       style="fill:none;stroke:#ff0000;stroke-width:1.89999998;stroke-linecap:butt;stroke-linejoin:miter;stroke-miterlimit:4;stroke-opacity:1;stroke-dasharray:none"
       d="m 141.1484,69.208495 0,313.571425"
       id="path3061"
       inkscape:connector-curvature="0" />
    <path
       inkscape:connector-curvature="0"
       id="path3063"
       d="m 215.1484,69.208495 0,313.571425"
       style="fill:none;stroke:#ff0000;stroke-width:1.89999998;stroke-linecap:butt;stroke-linejoin:miter;stroke-miterlimit:4;stroke-opacity:1;stroke-dasharray:none" />
    <path
       style="fill:none;stroke:#ff0000;stroke-width:1.89999998;stroke-linecap:butt;stroke-linejoin:miter;stroke-miterlimit:4;stroke-opacity:1;stroke-dasharray:none"
       d="m 289.1484,69.208495 0,313.571425"
       id="path3065"
       inkscape:connector-curvature="0" />
    <path
       inkscape:connector-curvature="0"
       id="path3067"
       d="m 363.1484,69.208495 0,313.571425"
       style="fill:none;stroke:#ff0000;stroke-width:1.89999998;stroke-linecap:butt;stroke-linejoin:miter;stroke-miterlimit:4;stroke-opacity:1;stroke-dasharray:none" />
    <path
       style="fill:none;stroke:#ff0000;stroke-width:1.89999998;stroke-linecap:butt;stroke-linejoin:miter;stroke-miterlimit:4;stroke-opacity:1;stroke-dasharray:none"
       d="m 426.30137,327.9942 -352.08153,0"
       id="path3837"
       inkscape:connector-curvature="0" />
    <path
       inkscape:connector-curvature="0"
       id="path3839"
       d="m 426.30137,262.66089 -352.08153,0"
       style="fill:none;stroke:#ff0000;stroke-width:1.89999998;stroke-linecap:butt;stroke-linejoin:miter;stroke-miterlimit:4;stroke-opacity:1;stroke-dasharray:none" />
    <path
       style="fill:none;stroke:#ff0000;stroke-width:1.89999998;stroke-linecap:butt;stroke-linejoin:miter;stroke-miterlimit:4;stroke-opacity:1;stroke-dasharray:none"
       d="m 426.30137,197.32751 -352.08153,0"
       id="path3841"
       inkscape:connector-curvature="0" />
    <path
       inkscape:connector-curvature="0"
       id="path3843"
       d="m 426.30137,131.9942 -352.08153,0"
       style="fill:none;stroke:#ff0000;stroke-width:1.89999998;stroke-linecap:butt;stroke-linejoin:miter;stroke-miterlimit:4;stroke-opacity:1;stroke-dasharray:none" />
    <path
       sodipodi:type="arc"
       style="fill:#ffffff;stroke:#0000ff;stroke-width:3.03999996;stroke-linecap:butt;stroke-miterlimit:4;stroke-opacity:1;stroke-dasharray:none;stroke-dashoffset:0"
       id="path3845"
       sodipodi:cx="250"
       sodipodi:cy="553.07648"
       sodipodi:rx="13.571428"
       sodipodi:ry="13.571428"
       d="m 263.57143,553.07648 a 13.571428,13.571428 0 1 1 -27.14286,0 13.571428,13.571428 0 1 1 27.14286,0 z"
       transform="matrix(0.65789473,0,0,0.65789473,94.746152,-75.014734)" />
    <path
       transform="matrix(0.65789473,0,0,0.65789473,82.603292,-146.4433)"
       d="m 263.57143,553.07648 a 13.571428,13.571428 0 1 1 -27.14286,0 13.571428,13.571428 0 1 1 27.14286,0 z"
       sodipodi:ry="13.571428"
       sodipodi:rx="13.571428"
       sodipodi:cy="553.07648"
       sodipodi:cx="250"
       id="path3847"
       style="fill:none;stroke:#0000ff;stroke-width:3.03999996;stroke-linecap:butt;stroke-miterlimit:4;stroke-opacity:1;stroke-dasharray:none;stroke-dashoffset:0"
       sodipodi:type="arc" />
    <path
       sodipodi:type="arc"
       style="fill:#ffffff;stroke:#0000ff;stroke-width:3.03999996;stroke-linecap:butt;stroke-miterlimit:4;stroke-opacity:1;stroke-dasharray:none;stroke-dashoffset:0"
       id="path3849"
       sodipodi:cx="250"
       sodipodi:cy="553.07648"
       sodipodi:rx="13.571428"
       sodipodi:ry="13.571428"
       d="m 263.57143,553.07648 a 13.571428,13.571428 0 1 1 -27.14286,0 13.571428,13.571428 0 1 1 27.14286,0 z"
       transform="matrix(0.65789473,0,0,0.65789473,82.603292,-146.4433)" />
    <path
       transform="matrix(0.65789473,0,0,0.65789473,104.03186,-120.01473)"
       d="m 263.57143,553.07648 a 13.571428,13.571428 0 1 1 -27.14286,0 13.571428,13.571428 0 1 1 27.14286,0 z"
       sodipodi:ry="13.571428"
       sodipodi:rx="13.571428"
       sodipodi:cy="553.07648"
       sodipodi:cx="250"
       id="path3851"
       style="fill:#ffffff;stroke:#0000ff;stroke-width:3.03999996;stroke-linecap:butt;stroke-miterlimit:4;stroke-opacity:1;stroke-dasharray:none;stroke-dashoffset:0"
       sodipodi:type="arc" />
    <path
       sodipodi:type="arc"
       style="fill:#ffffff;stroke:#0000ff;stroke-width:3.03999996;stroke-linecap:butt;stroke-miterlimit:4;stroke-opacity:1;stroke-dasharray:none;stroke-dashoffset:0"
       id="path3853"
       sodipodi:cx="250"
       sodipodi:cy="553.07648"
       sodipodi:rx="13.571428"
       sodipodi:ry="13.571428"
       d="m 263.57143,553.07648 a 13.571428,13.571428 0 1 1 -27.14286,0 13.571428,13.571428 0 1 1 27.14286,0 z"
       transform="matrix(0.65789473,0,0,0.65789473,26.889005,-127.15759)" />
    <path
       transform="matrix(0.65789473,0,0,0.65789473,-0.968137,-140.72902)"
       d="m 263.57143,553.07648 a 13.571428,13.571428 0 1 1 -27.14286,0 13.571428,13.571428 0 1 1 27.14286,0 z"
       sodipodi:ry="13.571428"
       sodipodi:rx="13.571428"
       sodipodi:cy="553.07648"
       sodipodi:cx="250"
       id="path3855"
       style="fill:#ffffff;stroke:#0000ff;stroke-width:3.03999996;stroke-linecap:butt;stroke-miterlimit:4;stroke-opacity:1;stroke-dasharray:none;stroke-dashoffset:0"
       sodipodi:type="arc" />
    <path
       sodipodi:type="arc"
       style="fill:#ffffff;stroke:#0000ff;stroke-width:3.03999996;stroke-linecap:butt;stroke-miterlimit:4;stroke-opacity:1;stroke-dasharray:none;stroke-dashoffset:0"
       id="path3857"
       sodipodi:cx="250"
       sodipodi:cy="553.07648"
       sodipodi:rx="13.571428"
       sodipodi:ry="13.571428"
       d="m 263.57143,553.07648 a 13.571428,13.571428 0 1 1 -27.14286,0 13.571428,13.571428 0 1 1 27.14286,0 z"
       transform="matrix(0.65789473,0,0,0.65789473,0.460434,-197.87187)" />
    <path
       transform="matrix(0.65789473,0,0,0.65789473,108.31758,-22.157594)"
       d="m 263.57143,553.07648 a 13.571428,13.571428 0 1 1 -27.14286,0 13.571428,13.571428 0 1 1 27.14286,0 z"
       sodipodi:ry="13.571428"
       sodipodi:rx="13.571428"
       sodipodi:cy="553.07648"
       sodipodi:cx="250"
       id="path3859"
       style="fill:#ffffff;stroke:#0000ff;stroke-width:3.03999996;stroke-linecap:butt;stroke-miterlimit:4;stroke-opacity:1;stroke-dasharray:none;stroke-dashoffset:0"
       sodipodi:type="arc" />
    <path
       sodipodi:type="arc"
       style="fill:#ffffff;stroke:#0000ff;stroke-width:3.03999996;stroke-linecap:butt;stroke-miterlimit:4;stroke-opacity:1;stroke-dasharray:none;stroke-dashoffset:0"
       id="path3861"
       sodipodi:cx="250"
       sodipodi:cy="553.07648"
       sodipodi:rx="13.571428"
       sodipodi:ry="13.571428"
       d="m 263.57143,553.07648 a 13.571428,13.571428 0 1 1 -27.14286,0 13.571428,13.571428 0 1 1 27.14286,0 z"
       transform="matrix(0.65789473,0,0,0.65789473,79.746149,-21.44331)" />
    <path
       transform="matrix(0.65789473,0,0,0.65789473,14.031863,-69.300454)"
       d="m 263.57143,553.07648 a 13.571428,13.571428 0 1 1 -27.14286,0 13.571428,13.571428 0 1 1 27.14286,0 z"
       sodipodi:ry="13.571428"
       sodipodi:rx="13.571428"
       sodipodi:cy="553.07648"
       sodipodi:cx="250"
       id="path3863"
       style="fill:#ffffff;stroke:#0000ff;stroke-width:3.03999996;stroke-linecap:butt;stroke-miterlimit:4;stroke-opacity:1;stroke-dasharray:none;stroke-dashoffset:0"
       sodipodi:type="arc" />
    <path
       sodipodi:type="arc"
       style="fill:#ffffff;stroke:#0000ff;stroke-width:3.03999996;stroke-linecap:butt;stroke-miterlimit:4;stroke-opacity:1;stroke-dasharray:none;stroke-dashoffset:0"
       id="path3865"
       sodipodi:cx="250"
       sodipodi:cy="553.07648"
       sodipodi:rx="13.571428"
       sodipodi:ry="13.571428"
       d="m 263.57143,553.07648 a 13.571428,13.571428 0 1 1 -27.14286,0 13.571428,13.571428 0 1 1 27.14286,0 z"
       transform="matrix(0.65789473,0,0,0.65789473,147.60329,-78.586161)" />
    <path
       transform="matrix(0.65789473,0,0,0.65789473,-3.8252795,-118.58616)"
       d="m 263.57143,553.07648 a 13.571428,13.571428 0 1 1 -27.14286,0 13.571428,13.571428 0 1 1 27.14286,0 z"
       sodipodi:ry="13.571428"
       sodipodi:rx="13.571428"
       sodipodi:cy="553.07648"
       sodipodi:cx="250"
       id="path3867"
       style="fill:#ffffff;stroke:#0000ff;stroke-width:3.03999996;stroke-linecap:butt;stroke-miterlimit:4;stroke-opacity:1;stroke-dasharray:none;stroke-dashoffset:0"
       sodipodi:type="arc" />
    <path
       sodipodi:type="arc"
       style="fill:#ffffff;stroke:#0000ff;stroke-width:3.03999996;stroke-linecap:butt;stroke-miterlimit:4;stroke-opacity:1;stroke-dasharray:none;stroke-dashoffset:0"
       id="path3869"
       sodipodi:cx="250"
       sodipodi:cy="553.07648"
       sodipodi:rx="13.571428"
       sodipodi:ry="13.571428"
       d="m 263.57143,553.07648 a 13.571428,13.571428 0 1 1 -27.14286,0 13.571428,13.571428 0 1 1 27.14286,0 z"
       transform="matrix(0.65789473,0,0,0.65789473,154.74614,-127.87187)" />
    <path
       transform="matrix(0.65789473,0,0,0.65789473,75.460435,-247.1576)"
       d="m 263.57143,553.07648 a 13.571428,13.571428 0 1 1 -27.14286,0 13.571428,13.571428 0 1 1 27.14286,0 z"
       sodipodi:ry="13.571428"
       sodipodi:rx="13.571428"
       sodipodi:cy="553.07648"
       sodipodi:cx="250"
       id="path3871"
       style="fill:#ffffff;stroke:#0000ff;stroke-width:3.03999996;stroke-linecap:butt;stroke-miterlimit:4;stroke-opacity:1;stroke-dasharray:none;stroke-dashoffset:0"
       sodipodi:type="arc" />
    <path
       sodipodi:type="arc"
       style="fill:#ffffff;stroke:#0000ff;stroke-width:3.03999996;stroke-linecap:butt;stroke-miterlimit:4;stroke-opacity:1;stroke-dasharray:none;stroke-dashoffset:0"
       id="path3873"
       sodipodi:cx="250"
       sodipodi:cy="553.07648"
       sodipodi:rx="13.571428"
       sodipodi:ry="13.571428"
       d="m 263.57143,553.07648 a 13.571428,13.571428 0 1 1 -27.14286,0 13.571428,13.571428 0 1 1 27.14286,0 z"
       transform="matrix(0.65789473,0,0,0.65789473,100.46043,-206.4433)" />
    <path
       transform="matrix(0.65789473,0,0,0.65789473,154.03186,-184.30046)"
       d="m 263.57143,553.07648 a 13.571428,13.571428 0 1 1 -27.14286,0 13.571428,13.571428 0 1 1 27.14286,0 z"
       sodipodi:ry="13.571428"
       sodipodi:rx="13.571428"
       sodipodi:cy="553.07648"
       sodipodi:cx="250"
       id="path3875"
       style="fill:#ffffff;stroke:#0000ff;stroke-width:3.03999996;stroke-linecap:butt;stroke-miterlimit:4;stroke-opacity:1;stroke-dasharray:none;stroke-dashoffset:0"
       sodipodi:type="arc" />
    <path
       sodipodi:type="arc"
       style="fill:#ffffff;stroke:#0000ff;stroke-width:3.03999996;stroke-linecap:butt;stroke-miterlimit:4;stroke-opacity:1;stroke-dasharray:none;stroke-dashoffset:0"
       id="path3877"
       sodipodi:cx="250"
       sodipodi:cy="553.07648"
       sodipodi:rx="13.571428"
       sodipodi:ry="13.571428"
       d="m 263.57143,553.07648 a 13.571428,13.571428 0 1 1 -27.14286,0 13.571428,13.571428 0 1 1 27.14286,0 z"
       transform="matrix(0.65789473,0,0,0.65789473,-4.5395651,-45.014734)" />
    <path
       transform="matrix(0.65789473,0,0,0.65789473,-35.253851,-23.586168)"
       d="m 263.57143,553.07648 a 13.571428,13.571428 0 1 1 -27.14286,0 13.571428,13.571428 0 1 1 27.14286,0 z"
       sodipodi:ry="13.571428"
       sodipodi:rx="13.571428"
       sodipodi:cy="553.07648"
       sodipodi:cx="250"
       id="path3879"
       style="fill:#ffffff;stroke:#0000ff;stroke-width:3.03999996;stroke-linecap:butt;stroke-miterlimit:4;stroke-opacity:1;stroke-dasharray:none;stroke-dashoffset:0"
       sodipodi:type="arc" />
    <path
       sodipodi:type="arc"
       style="fill:#ffffff;stroke:#0000ff;stroke-width:3.03999996;stroke-linecap:butt;stroke-miterlimit:4;stroke-opacity:1;stroke-dasharray:none;stroke-dashoffset:0"
       id="path3881"
       sodipodi:cx="250"
       sodipodi:cy="553.07648"
       sodipodi:rx="13.571428"
       sodipodi:ry="13.571428"
       d="m 263.57143,553.07648 a 13.571428,13.571428 0 1 1 -27.14286,0 13.571428,13.571428 0 1 1 27.14286,0 z"
       transform="matrix(0.65789473,0,0,0.65789473,29.031863,-211.4433)" />
    <path
       transform="matrix(0.65789473,0,0,0.65789473,138.31757,-241.44331)"
       d="m 263.57143,553.07648 a 13.571428,13.571428 0 1 1 -27.14286,0 13.571428,13.571428 0 1 1 27.14286,0 z"
       sodipodi:ry="13.571428"
       sodipodi:rx="13.571428"
       sodipodi:cy="553.07648"
       sodipodi:cx="250"
       id="path3897"
       style="fill:#ffffff;stroke:#0000ff;stroke-width:3.03999996;stroke-linecap:butt;stroke-miterlimit:4;stroke-opacity:1;stroke-dasharray:none;stroke-dashoffset:0"
       sodipodi:type="arc" />
    <path
       sodipodi:type="arc"
       style="fill:#ffffff;stroke:#0000ff;stroke-width:3.03999996;stroke-linecap:butt;stroke-miterlimit:4;stroke-opacity:1;stroke-dasharray:none;stroke-dashoffset:0"
       id="path3899"
       sodipodi:cx="250"
       sodipodi:cy="553.07648"
       sodipodi:rx="13.571428"
       sodipodi:ry="13.571428"
       d="m 263.57143,553.07648 a 13.571428,13.571428 0 1 1 -27.14286,0 13.571428,13.571428 0 1 1 27.14286,0 z"
       transform="matrix(0.65789473,0,0,0.65789473,160.31757,-235.44331)" />
    <rect
       style="fill:url(#pattern6456);fill-opacity:1;stroke:#ff00ff;stroke-width:1.5;stroke-linecap:butt;stroke-linejoin:miter;stroke-miterlimit:4;stroke-opacity:1;stroke-dasharray:11.99999997, 5.99999998;stroke-dashoffset:0"
       id="rect3901"
       width="82.85714"
       height="65"
       x="172.43413"
       y="101.35135" />
    <rect
       y="72.208496"
       x="394.36267"
       height="29.64286"
       width="31.785715"
       id="rect3915"
       style="fill:url(#pattern6441);fill-opacity:1;stroke:#ff00ff;stroke-width:1.5;stroke-linecap:butt;stroke-linejoin:miter;stroke-miterlimit:4;stroke-opacity:1;stroke-dasharray:11.9999999, 5.99999995;stroke-dashoffset:0" />
    <rect
       style="fill:url(#pattern6438);fill-opacity:1;stroke:#ff00ff;stroke-width:1.49999988;stroke-linecap:butt;stroke-linejoin:miter;stroke-miterlimit:4;stroke-opacity:1;stroke-dasharray:11.99999983, 5.99999991;stroke-dashoffset:0"
       id="rect3917"
       width="72.5"
       height="31.785719"
       x="254.50554"
       y="70.779938" />
    <text
       xml:space="preserve"
       style="font-size:24px;font-style:normal;font-weight:normal;text-align:start;line-height:100%;letter-spacing:0px;word-spacing:0px;text-anchor:start;fill:#000000;fill-opacity:1;stroke:none;font-family:Sans;-inkscape-font-specification:Sans"
       x="458.02585"
       y="406.54724"
       id="text5832"
       sodipodi:linespacing="100%"><tspan
         sodipodi:role="line"
         id="tspan5834"
         x="458.02585"
         y="406.54724"
         style="font-size:22px">particle mesh</tspan></text>
    <path
       style="fill:none;stroke:#000000;stroke-width:0.99999994px;stroke-linecap:butt;stroke-linejoin:miter;stroke-opacity:1;marker-end:url(#Arrow2Mend)"
       d="m 514.37504,386.11868 c 0,0 -11.36111,-5.94313 -37.56264,-8.20992 -9.77157,-0.84537 -48.31805,-1.77925 -48.31805,-1.77925"
       id="path5836"
       inkscape:connector-curvature="0"
       sodipodi:nodetypes="csc" />
    <text
       xml:space="preserve"
       style="font-size:24px;font-style:normal;font-weight:normal;text-align:start;line-height:100%;letter-spacing:0px;word-spacing:0px;text-anchor:start;fill:#000000;fill-opacity:1;stroke:none;font-family:Sans;-inkscape-font-specification:Sans"
       x="285.18973"
       y="1023.2412"
       id="text5874"
       sodipodi:linespacing="100%"><tspan
         sodipodi:role="line"
         id="tspan5876"
         x="285.18973"
         y="1023.2412" /></text>
    <text
       xml:space="preserve"
       style="font-size:24px;font-style:normal;font-weight:normal;text-align:start;line-height:100%;letter-spacing:0px;word-spacing:0px;text-anchor:start;fill:#000000;fill-opacity:1;stroke:none;font-family:Sans;-inkscape-font-specification:Sans"
       x="641.61829"
       y="920.38409"
       id="text5890"
       sodipodi:linespacing="100%"><tspan
         sodipodi:role="line"
         id="tspan5892"
         x="641.61829"
         y="920.38409" /><tspan
         sodipodi:role="line"
         id="tspan5894"
         x="641.61829"
         y="944.38409" /></text>
    <g
       id="g6584"
       style="stroke:#000000;stroke-width:1.28491879"
       transform="matrix(0.75737559,0,0,0.79971885,66.127191,-235.01892)">
      <path
         style="fill:none;stroke:#000000;stroke-width:2.56983757;stroke-linecap:butt;stroke-linejoin:miter;stroke-miterlimit:4;stroke-opacity:1;stroke-dasharray:none"
         d="m 73.148404,423.2085 0,314.99999 352.857136,0 0,-312.85714 z"
         id="path6510"
         inkscape:connector-curvature="0" />
      <path
         style="fill:none;stroke:#000000;stroke-width:2.44134569;stroke-linecap:butt;stroke-linejoin:miter;stroke-miterlimit:4;stroke-opacity:1;stroke-dasharray:none"
         d="m 141.1484,423.2085 0,313.57142"
         id="path6512"
         inkscape:connector-curvature="0" />
      <path
         inkscape:connector-curvature="0"
         id="path6514"
         d="m 215.1484,423.2085 0,313.57142"
         style="fill:none;stroke:#000000;stroke-width:2.44134569;stroke-linecap:butt;stroke-linejoin:miter;stroke-miterlimit:4;stroke-opacity:1;stroke-dasharray:none" />
      <path
         style="fill:none;stroke:#000000;stroke-width:2.44134569;stroke-linecap:butt;stroke-linejoin:miter;stroke-miterlimit:4;stroke-opacity:1;stroke-dasharray:none"
         d="m 289.1484,423.2085 0,313.57142"
         id="path6516"
         inkscape:connector-curvature="0" />
      <path
         inkscape:connector-curvature="0"
         id="path6518"
         d="m 363.1484,423.2085 0,313.57142"
         style="fill:none;stroke:#000000;stroke-width:2.44134569;stroke-linecap:butt;stroke-linejoin:miter;stroke-miterlimit:4;stroke-opacity:1;stroke-dasharray:none" />
      <path
         style="fill:none;stroke:#000000;stroke-width:2.44134569;stroke-linecap:butt;stroke-linejoin:miter;stroke-miterlimit:4;stroke-opacity:1;stroke-dasharray:none"
         d="m 426.30137,681.9942 -352.08153,0"
         id="path6520"
         inkscape:connector-curvature="0" />
      <path
         inkscape:connector-curvature="0"
         id="path6522"
         d="m 426.30137,616.66089 -352.08153,0"
         style="fill:none;stroke:#000000;stroke-width:2.44134569;stroke-linecap:butt;stroke-linejoin:miter;stroke-miterlimit:4;stroke-opacity:1;stroke-dasharray:none" />
      <path
         style="fill:none;stroke:#000000;stroke-width:2.44134569;stroke-linecap:butt;stroke-linejoin:miter;stroke-miterlimit:4;stroke-opacity:1;stroke-dasharray:none"
         d="m 426.30137,551.32751 -352.08153,0"
         id="path6524"
         inkscape:connector-curvature="0" />
      <path
         inkscape:connector-curvature="0"
         id="path6526"
         d="m 426.30137,485.9942 -352.08153,0"
         style="fill:none;stroke:#000000;stroke-width:2.44134569;stroke-linecap:butt;stroke-linejoin:miter;stroke-miterlimit:4;stroke-opacity:1;stroke-dasharray:none" />
    </g>
    <text
       sodipodi:linespacing="100%"
       id="text6595"
       y="320.69009"
       x="435.883"
       style="font-size:24px;font-style:normal;font-weight:normal;text-align:start;line-height:100%;letter-spacing:0px;word-spacing:0px;text-anchor:start;fill:#000000;fill-opacity:1;stroke:none;font-family:Sans;-inkscape-font-specification:Sans"
       xml:space="preserve"><tspan
         style="font-size:22px"
         y="320.69009"
         x="435.883"
         id="tspan6597"
         sodipodi:role="line">OpenFOAM mesh</tspan></text>
    <path
       sodipodi:nodetypes="csc"
       inkscape:connector-curvature="0"
       id="path6599"
       d="m 517.23216,298.11867 c 0,0 -16.3216,-14.93571 -53.96326,-20.6324 -14.03803,-2.1245 -69.4147,-4.47144 -69.4147,-4.47144"
       style="fill:none;stroke:#000000;stroke-width:0.99999994px;stroke-linecap:butt;stroke-linejoin:miter;stroke-opacity:1;marker-end:url(#Arrow2Mend)" />
  </g>
</svg>
